<?xml version="1.0" encoding="UTF-8"?>
<svg id="Layer_1" xmlns="http://www.w3.org/2000/svg" version="1.1" viewBox="0 0 800 800">
  <!-- Generator: Adobe Illustrator 29.4.0, SVG Export Plug-In . SVG Version: 2.1.0 Build 152)  -->
  <defs>
    <style>
      .st0 {
        fill-rule: evenodd;
      }
    </style>
  </defs>
  <path class="st0" d="M366.89,521.21l66.9-66.9c14.57-14.57,34.27-22.95,54.87-23.19,20.63-.23,40.49,7.75,55.09,22.35l79.49,79.49c17.09,17.09,17.09,44.79,0,61.87-33.04,33.04-80.22,50.12-127.2,41.53-18.06-3.3-37.57-7.39-51.38-11.85-24.09-7.79-49.35-16.18-91.8-49.93-19.28-15.33-42.03-35.82-69.92-63.72-27.9-27.9-48.38-50.64-63.72-69.92-33.75-42.44-42.14-67.71-49.93-91.8-4.46-13.8-8.55-33.32-11.85-51.38-8.59-46.98,8.49-94.16,41.53-127.2,17.09-17.09,44.79-17.09,61.87,0l79.5,79.49c14.6,14.6,22.58,34.46,22.35,55.09-.23,20.6-8.62,40.3-23.19,54.87l-66.9,66.9c12.01,13.84,26.95,29.84,45.69,48.59,18.75,18.74,34.75,33.69,48.59,45.69ZM241.7,387.13l62.45-62.45c5.44-5.44,8.46-12.7,8.55-20.08.08-7.35-2.75-14.21-7.71-19.17l-74.94-74.94c-19.62,22.11-28.41,50.96-23.41,78.3,3.28,17.92,6.88,34.6,10.24,44.99l.25.78c4.99,15.45,9.81,30.36,24.58,52.57ZM406.69,552.12c22.21,14.76,37.12,19.58,52.58,24.58.26.08.52.17.78.25,10.39,3.36,27.07,6.96,44.99,10.24,27.33,5,56.19-3.8,78.29-23.41l-74.94-74.94c-4.96-4.96-11.82-7.8-19.17-7.71-7.38.08-14.63,3.11-20.08,8.55l-62.45,62.45Z"/>
</svg>